<svg width="96" height="96" fill="none" xmlns="http://www.w3.org/2000/svg" filter="blur(10px)"><g filter="url(#filter0_d_184_564)"><circle cx="48" cy="46" r="40" fill="#fff"/></g><rect x="30" y="28" width="35.532" height="36" rx="17.766" fill="#0052FF"/><path d="M47.962 39.251c2.73 0 4.915 1.639 5.695 4.135h5.462c-1.014-5.305-5.384-8.972-11.157-8.972-6.476.078-11.548 4.993-11.548 11.625s4.994 11.547 11.625 11.547c5.618 0 10.066-3.589 11.08-8.972h-5.462c-.78 2.497-2.965 4.213-5.617 4.213-3.746 0-6.398-2.887-6.398-6.788 0-3.901 2.574-6.788 6.32-6.788z" fill="#fff"/><defs><filter id="filter0_d_184_564" x="0" y="0" width="96" height="96" filterUnits="userSpaceOnUse" color-interpolation-filters="sRGB"><feFlood flood-opacity="0" result="BackgroundImageFix"/><feColorMatrix in="SourceAlpha" values="0 0 0 0 0 0 0 0 0 0 0 0 0 0 0 0 0 0 127 0" result="hardAlpha"/><feOffset dy="2"/><feGaussianBlur stdDeviation="4"/><feComposite in2="hardAlpha" operator="out"/><feColorMatrix values="0 0 0 0 0 0 0 0 0 0 0 0 0 0 0 0 0 0 0.08 0"/><feBlend in2="BackgroundImageFix" result="effect1_dropShadow_184_564"/><feBlend in="SourceGraphic" in2="effect1_dropShadow_184_564" result="shape"/></filter></defs></svg>