<svg width="96" height="96" fill="none" xmlns="http://www.w3.org/2000/svg" filter="blur(10px)"><g filter="url(#filter0_d_184_580)"><circle cx="48" cy="46" r="40" fill="#fff"/></g><path d="M47.507 50.26c1.438.023 4.566.074 4.588-1.933.022-2.077-3.088-2.013-4.55-1.983-.15.003-.282.005-.393.005v3.907c.101 0 .22.002.355.004zm-.114-5.688c1.159.04 3.887.131 3.91-1.743.022-1.9-2.57-1.842-3.792-1.814-.127.003-.239.006-.331.006v3.544l.213.007z" fill="#009FE8"/><path fill-rule="evenodd" clip-rule="evenodd" d="M63.816 39.526C63.816 58.768 48.408 64 48.408 64S33 58.768 33 39.526v-6.92c0-.748.579-1.375 1.326-1.423 2.797-.12 9.428-.7 14.082-3.183 4.654 2.484 11.285 3.062 14.082 3.183a1.424 1.424 0 011.326 1.422v6.92zm-13.455-.507c2.29.217 4.075.94 4.268 3.039.145 1.543-.506 2.459-1.543 2.941 1.688.41 2.724 1.447 2.507 3.69-.289 2.797-2.363 3.544-5.353 3.689v2.941h-1.784v-2.893c-.458 0-.94 0-1.423-.024v2.917h-1.76v-2.941c-.41-.024-3.23 0-3.23 0l.023-2.146h2.002v-9.38H41.8v-1.857s3.183-.024 3.569-.024l-.024-2.917h1.784v2.869h1.447v-2.845h1.784v2.941z" fill="#009FE8"/><defs><filter id="filter0_d_184_580" x="0" y="0" width="96" height="96" filterUnits="userSpaceOnUse" color-interpolation-filters="sRGB"><feFlood flood-opacity="0" result="BackgroundImageFix"/><feColorMatrix in="SourceAlpha" values="0 0 0 0 0 0 0 0 0 0 0 0 0 0 0 0 0 0 127 0" result="hardAlpha"/><feOffset dy="2"/><feGaussianBlur stdDeviation="4"/><feComposite in2="hardAlpha" operator="out"/><feColorMatrix values="0 0 0 0 0 0 0 0 0 0 0 0 0 0 0 0 0 0 0.08 0"/><feBlend in2="BackgroundImageFix" result="effect1_dropShadow_184_580"/><feBlend in="SourceGraphic" in2="effect1_dropShadow_184_580" result="shape"/></filter></defs></svg>