<svg width="96" height="96" fill="none" xmlns="http://www.w3.org/2000/svg" filter="blur(10px)"><g filter="url(#filter0_d_184_565)"><circle cx="48" cy="46" r="40" fill="#fff"/></g><path d="M63.799 30L50.33 40.003l2.49-5.901L63.8 30z" fill="#E2761B" stroke="#E2761B" stroke-linecap="round" stroke-linejoin="round"/><path d="M32.701 30l13.36 10.098-2.368-5.996L32.7 30zM58.95 53.188l-3.587 5.495 7.675 2.112 2.207-7.485-6.295-.122zm-27.669.122l2.193 7.485 7.675-2.111-3.587-5.496-6.28.122z" fill="#E4761B" stroke="#E4761B" stroke-linecap="round" stroke-linejoin="round"/><path d="M40.717 43.902l-2.139 3.235 7.621.338-.27-8.19-5.212 4.617zm15.066 0l-5.279-4.71-.176 8.283 7.607-.338-2.152-3.235zM41.148 58.684l4.576-2.234-3.953-3.086-.623 5.32zm9.625-2.234l4.59 2.233-.637-5.32-3.953 3.087z" fill="#E4761B" stroke="#E4761B" stroke-linecap="round" stroke-linejoin="round"/><path d="M55.364 58.683l-4.589-2.233.366 2.991-.04 1.26 4.263-2.018zm-14.212 0l4.264 2.017-.027-1.259.339-2.991-4.576 2.233z" fill="#D7C1B3" stroke="#D7C1B3" stroke-linecap="round" stroke-linejoin="round"/><path d="M45.485 51.388l-3.817-1.124 2.694-1.232 1.123 2.356zm5.535 0l1.123-2.356 2.707 1.232-3.83 1.123z" fill="#233447" stroke="#233447" stroke-linecap="round" stroke-linejoin="round"/><path d="M41.154 58.684l.65-5.496-4.238.122 3.587 5.374zm13.563-5.496l.65 5.496 3.587-5.374-4.237-.122zm3.221-6.051l-7.608.339.704 3.912 1.123-2.356 2.708 1.232 3.072-3.127zm-16.27 3.127l2.708-1.232 1.11 2.356.717-3.912-7.621-.339 3.086 3.127z" fill="#CD6116" stroke="#CD6116" stroke-linecap="round" stroke-linejoin="round"/><path d="M38.582 47.137l3.195 6.227-.109-3.1-3.086-3.127zm16.286 3.127l-.136 3.1 3.209-6.227-3.073 3.127zm-8.666-2.788l-.718 3.912.894 4.616.203-6.078-.38-2.45zm4.128 0l-.365 2.436.162 6.092.907-4.616-.704-3.912z" fill="#E4751F" stroke="#E4751F" stroke-linecap="round" stroke-linejoin="round"/><path d="M51.034 51.387l-.907 4.616.65.447 3.952-3.086.136-3.1-3.831 1.123zm-9.366-1.123l.108 3.1 3.953 3.086.65-.447-.894-4.616-3.817-1.123z" fill="#F6851B" stroke="#F6851B" stroke-linecap="round" stroke-linejoin="round"/><path d="M51.102 60.7l.04-1.258-.338-.298H45.7l-.31.298.026 1.258-4.264-2.016 1.49 1.218L45.66 62h5.184l3.032-2.098 1.49-1.218-4.264 2.017z" fill="#C0AD9E" stroke="#C0AD9E" stroke-linecap="round" stroke-linejoin="round"/><path d="M50.776 56.45l-.65-.447h-3.75l-.649.447-.338 2.992.311-.298h5.103l.339.298-.366-2.992z" fill="#161616" stroke="#161616" stroke-linecap="round" stroke-linejoin="round"/><path d="M64.368 40.653l1.15-5.523L63.8 30l-13.022 9.665 5.009 4.237 7.08 2.07 1.57-1.827-.677-.487 1.083-.988-.84-.65 1.083-.826-.717-.54zM31 35.13l1.15 5.523-.73.541 1.082.826-.825.65 1.083.988-.677.487 1.557 1.828 7.08-2.071 5.008-4.237L32.706 30 31 35.13z" fill="#763D16" stroke="#763D16" stroke-linecap="round" stroke-linejoin="round"/><path d="M62.864 45.973l-7.08-2.07 2.153 3.234-3.209 6.227 4.224-.054h6.294l-2.382-7.337zM40.72 43.902l-7.08 2.071-2.355 7.337h6.281l4.21.054-3.195-6.227 2.139-3.235zm9.61 3.574l.447-7.81 2.057-5.564h-9.137l2.03 5.563.475 7.81.162 2.464.014 6.065h3.749l.027-6.065.176-2.463z" fill="#F6851B" stroke="#F6851B" stroke-linecap="round" stroke-linejoin="round"/><defs><filter id="filter0_d_184_565" x="0" y="0" width="96" height="96" filterUnits="userSpaceOnUse" color-interpolation-filters="sRGB"><feFlood flood-opacity="0" result="BackgroundImageFix"/><feColorMatrix in="SourceAlpha" values="0 0 0 0 0 0 0 0 0 0 0 0 0 0 0 0 0 0 127 0" result="hardAlpha"/><feOffset dy="2"/><feGaussianBlur stdDeviation="4"/><feComposite in2="hardAlpha" operator="out"/><feColorMatrix values="0 0 0 0 0 0 0 0 0 0 0 0 0 0 0 0 0 0 0.08 0"/><feBlend in2="BackgroundImageFix" result="effect1_dropShadow_184_565"/><feBlend in="SourceGraphic" in2="effect1_dropShadow_184_565" result="shape"/></filter></defs></svg>