<svg width="96" height="96" fill="none" xmlns="http://www.w3.org/2000/svg" filter="blur(10px)"><g filter="url(#filter0_d_184_566)"><circle cx="48" cy="46" r="40" fill="#fff"/></g><path fill-rule="evenodd" clip-rule="evenodd" d="M53.913 28H42.087C35.412 28 30 33.412 30 40.087v11.826C30 58.588 35.412 64 42.087 64h11.826C60.588 64 66 58.588 66 51.913V40.087C66 33.412 60.588 28 53.913 28zm-6.746 6.681a1.768 1.768 0 012.267 0c2.701 2.256 5.783 2.241 7.049 2.235h.17a1.769 1.769 0 011.769 1.795c-.06 4.022-.222 6.928-.545 9.078-.324 2.148-.83 3.714-1.705 4.93-.883 1.227-2.014 1.909-3.1 2.51l-.584.318c-.942.51-1.95 1.058-3.156 1.923a1.769 1.769 0 01-2.062 0c-1.206-.865-2.212-1.411-3.153-1.922l-.005-.002c-.196-.107-.389-.212-.58-.318-1.087-.6-2.216-1.283-3.098-2.511-.872-1.215-1.377-2.781-1.7-4.928-.321-2.15-.482-5.056-.543-9.078a1.768 1.768 0 011.769-1.796h.168c1.256.007 4.338.022 7.039-2.234zm1.13 3.56c-2.4 1.587-4.868 2.042-6.537 2.168.078 3.056.229 5.244.47 6.855.286 1.907.675 2.833 1.075 3.39.39.543.908.91 1.936 1.479.163.09.338.185.523.285.707.383 1.563.848 2.534 1.476.972-.63 1.83-1.094 2.538-1.478h.002l.02-.012c.176-.095.343-.185.5-.272 1.029-.569 1.549-.936 1.94-1.48.4-.556.791-1.483 1.078-3.389.242-1.61.394-3.798.471-6.854-1.672-.125-4.145-.578-6.55-2.169z" fill="#009FE8"/><defs><filter id="filter0_d_184_566" x="0" y="0" width="96" height="96" filterUnits="userSpaceOnUse" color-interpolation-filters="sRGB"><feFlood flood-opacity="0" result="BackgroundImageFix"/><feColorMatrix in="SourceAlpha" values="0 0 0 0 0 0 0 0 0 0 0 0 0 0 0 0 0 0 127 0" result="hardAlpha"/><feOffset dy="2"/><feGaussianBlur stdDeviation="4"/><feComposite in2="hardAlpha" operator="out"/><feColorMatrix values="0 0 0 0 0 0 0 0 0 0 0 0 0 0 0 0 0 0 0.08 0"/><feBlend in2="BackgroundImageFix" result="effect1_dropShadow_184_566"/><feBlend in="SourceGraphic" in2="effect1_dropShadow_184_566" result="shape"/></filter></defs></svg>