<?xml version="1.0" encoding="utf-8"?>
<!-- Generator: Adobe Illustrator 27.4.0, SVG Export Plug-In . SVG Version: 6.00 Build 0)  -->
<svg version="1.1" id="katman_1" xmlns="http://www.w3.org/2000/svg" xmlns:xlink="http://www.w3.org/1999/xlink" x="0px" y="0px"
	 viewBox="0 0 174.4 38" style="enable-background:new 0 0 174.4 38;" xml:space="preserve">
<style type="text/css">
	.st0{fill:#FFFFFF;}
</style>
<g>
	<path class="st0" d="M6.5,20.1v-2.6h7.2c0.9,0,1.5-0.2,2-0.7s0.8-1.1,0.8-1.9c0-0.9-0.3-1.5-0.8-1.9c-0.5-0.5-1.1-0.7-2-0.7H7v12.8
		H3.8V9.5h9.7c0.9,0,1.7,0.1,2.5,0.3c0.8,0.2,1.4,0.6,2,1c0.6,0.5,1.1,1,1.3,1.6s0.5,1.5,0.5,2.4c0,1-0.2,1.7-0.5,2.4
		c-0.3,0.7-0.8,1.1-1.3,1.6c-0.6,0.4-1.2,0.7-2,0.9c-0.8,0.2-1.6,0.3-2.5,0.3L6.5,20.1L6.5,20.1z"/>
	<path class="st0" d="M28.9,25.4c-1.5,0-2.9-0.3-4-0.8c-1.1-0.5-2-1.1-2.7-2.1c-0.7-1-1-2.1-1-3.4s0.3-2.5,1-3.4
		c0.7-1,1.5-1.6,2.7-2.1c1.1-0.5,2.5-0.8,4-0.8s2.9,0.3,3.9,0.8c1.1,0.5,2,1.1,2.7,2.1c0.7,1,1,2.1,1,3.4s-0.3,2.5-1,3.4
		c-0.7,1-1.5,1.6-2.7,2.1C31.8,25.2,30.5,25.4,28.9,25.4z M28.9,23c0.9,0,1.6-0.2,2.3-0.5c0.7-0.3,1.1-0.8,1.6-1.3
		c0.4-0.6,0.6-1.2,0.6-2.1c0-0.9-0.2-1.5-0.6-2.1c-0.4-0.6-0.9-1.1-1.5-1.3s-1.4-0.5-2.3-0.5s-1.6,0.2-2.3,0.5
		c-0.7,0.3-1.2,0.8-1.6,1.3c-0.4,0.6-0.6,1.2-0.6,2.1c0,0.9,0.2,1.5,0.6,2.1c0.4,0.6,1,1,1.6,1.3C27.4,22.9,28.1,23,28.9,23z"/>
	<path class="st0" d="M38.9,13.2H42v12h-3.2V13.2z M46.6,15.7c-0.9,0-1.7,0.2-2.3,0.5c-0.7,0.4-1.1,0.8-1.6,1.2
		c-0.5,0.5-0.7,1-0.9,1.4v-1.3c0-0.2,0.1-0.5,0.2-0.9c0.1-0.4,0.3-0.8,0.5-1.2c0.2-0.5,0.5-0.9,0.9-1.2c0.4-0.4,0.9-0.8,1.3-1
		c0.6-0.3,1.1-0.4,1.8-0.4L46.6,15.7L46.6,15.7z"/>
	<path class="st0" d="M48.7,8.4h3.2v16.8h-3.2V8.4z M62,13.2l-7.2,6.3l0.1-1.9l7.7,7.7h-4L52,18.5l5.7-5.3L62,13.2L62,13.2z"/>
	<path class="st0" d="M63.1,13.2h3.3l5.2,11.5l-2.7,0.5L63.1,13.2z M77.8,13.2L69.5,30h-3.3l3.5-6.6l4.7-10.2
		C74.5,13.2,77.8,13.2,77.8,13.2z"/>
	<path class="st0" d="M88.6,20.1v-2.6h7.2c0.9,0,1.5-0.2,2-0.7s0.8-1.1,0.8-1.9c0-0.9-0.3-1.5-0.8-1.9c-0.6-0.5-1.2-0.7-2.1-0.7
		h-6.8v12.8h-3.3V9.5h9.7c0.9,0,1.7,0.1,2.5,0.3c0.8,0.2,1.4,0.6,2,1c0.6,0.5,1.1,1,1.3,1.6s0.5,1.5,0.5,2.4c0,1-0.2,1.7-0.5,2.4
		s-0.8,1.1-1.3,1.6c-0.6,0.4-1.2,0.7-2,0.9c-0.8,0.2-1.6,0.3-2.5,0.3L88.6,20.1L88.6,20.1z"/>
	<path class="st0" d="M107.7,7.9v2.8H104V7.9H107.7z M104.3,13.2h3.2v12h-3.2V13.2z"/>
	<path class="st0" d="M116.3,23.3c-1.3,0-2.5-0.2-3.4-0.6c-1-0.4-1.7-1-2.3-1.7c-0.6-0.8-0.9-1.7-0.9-2.8c0-1.1,0.3-2,0.8-2.8
		c0.6-0.8,1.2-1.4,2.3-1.8c1-0.5,2.1-0.7,3.4-0.7c0.4,0,0.8,0,1.1,0.1c0.4,0.1,0.7,0.1,1.1,0.2h6v2.4c-0.9,0-1.6-0.1-2.5-0.3
		c-0.9-0.2-1.6-0.5-2.2-0.7l-0.1-0.2c0.6,0.3,1.1,0.6,1.5,1s0.9,0.8,1.1,1.3c0.3,0.5,0.5,1.1,0.5,1.7c0,1.1-0.3,1.9-0.8,2.7
		c-0.6,0.8-1.2,1.3-2.3,1.7C118.8,23.1,117.6,23.3,116.3,23.3z M120.3,30.1v-0.6c0-0.8-0.2-1.2-0.7-1.5c-0.5-0.3-1.1-0.5-1.9-0.5
		H114c-0.8,0-1.3-0.1-1.8-0.2s-0.9-0.3-1.1-0.5c-0.3-0.2-0.5-0.5-0.7-0.8c-0.2-0.3-0.2-0.6-0.2-0.9c0-0.7,0.2-1.1,0.7-1.4
		c0.4-0.3,1-0.6,1.7-0.7c0.7-0.1,1.5-0.1,2.3-0.1l1.5,0.3c-1.1,0-1.7,0.1-2.3,0.3c-0.5,0.1-0.8,0.4-0.8,0.8c0,0.3,0.1,0.5,0.3,0.6
		c0.2,0.1,0.5,0.2,0.9,0.2h3.9c1.1,0,2,0.1,2.8,0.4c0.8,0.2,1.3,0.7,1.7,1.1s0.6,1.3,0.6,2.3v1.1C123.5,30.1,120.3,30.1,120.3,30.1z
		 M116.3,21c0.7,0,1.3-0.1,1.8-0.4c0.5-0.2,1-0.6,1.2-1c0.3-0.4,0.5-1,0.5-1.5s-0.2-1.1-0.5-1.5c-0.3-0.5-0.7-0.8-1.2-1
		c-0.5-0.2-1.1-0.4-1.8-0.4c-0.7,0-1.3,0.1-1.8,0.4c-0.6,0.2-1,0.6-1.2,1c-0.3,0.5-0.5,1-0.5,1.5s0.2,1.1,0.5,1.5s0.7,0.8,1.2,1
		C114.9,20.9,115.5,21,116.3,21z"/>
	<path class="st0" d="M133.1,9.5h3.3v15.6h-3.3V9.5z"/>
	<path class="st0" d="M140.1,13.2h3.2v12h-3.2V13.2z M148.8,12.9c0.8,0,1.4,0.1,2,0.3c0.7,0.2,1.1,0.5,1.6,0.9
		c0.5,0.4,0.9,1,1.1,1.5c0.3,0.6,0.4,1.3,0.4,2.2v7.4h-3.2v-6.8c0-1.1-0.3-1.7-0.8-2.2c-0.5-0.5-1.2-0.7-2.4-0.7
		c-0.9,0-1.6,0.2-2.3,0.5s-1.2,0.8-1.6,1.2c-0.4,0.5-0.7,1-0.8,1.5v-1.2c0.1-0.6,0.3-1.1,0.6-1.6c0.3-0.6,0.7-1.1,1.1-1.4
		c0.5-0.5,1.1-0.8,1.7-1.1C147.2,13.1,148,12.9,148.8,12.9z"/>
	<path class="st0" d="M167.7,19.4v0.9c0,0.2-0.1,0.6-0.3,1c-0.1,0.4-0.3,0.9-0.6,1.3c-0.3,0.5-0.6,1-1.1,1.4c-0.4,0.5-1,0.8-1.5,1.1
		c-0.6,0.3-1.3,0.4-2.2,0.4c-0.7,0-1.3-0.1-1.9-0.3c-0.7-0.2-1.2-0.4-1.7-0.8c-0.5-0.4-1-0.9-1.2-1.5c-0.3-0.7-0.5-1.4-0.5-2.4v-7.3
		h3.2v6.7c0,0.8,0.1,1.3,0.4,1.8s0.6,0.8,1.1,1c0.5,0.2,1.1,0.3,1.7,0.3c0.9,0,1.6-0.2,2.2-0.6c0.7-0.4,1.1-0.9,1.5-1.3
		C167.3,20.4,167.6,19.9,167.7,19.4z M170.6,25.1h-3.2v-12h3.2V25.1z"/>
</g>
</svg>
